# xmcd
#
# Track frame offsets:
#	150
#	17722
#	38550
#	56237
#	74572
#	88982
#	108650
#	127207
#	151560
#
# Disc length: 2206 seconds
#
# Revision: 1
# Processed by: cddbd v1.5.2PL0 Copyright (c) Steve Scherf et al.
# Submitted via: EasyCDDAExtractor 15.3.0.1
#
DISCID=7c089c09
DTITLE=Ednita Nazario - Exitos Del Recuerdo
DYEAR=1995
DGENRE=Latin
TTITLE0=Un Corazon Hecho Pedazos
TTITLE1=Y Te Vas
TTITLE2=Imposible
TTITLE3=Por Ti Me Casare
TTITLE4=Mirame
TTITLE5=Tanto Nos Amamos
TTITLE6=Que No Acabe El Amor
TTITLE7=Un Hombre Para Mi
TTITLE8=Invitame A Bailar
EXTD=
EXTT0=
EXTT1=
EXTT2=
EXTT3=
EXTT4=
EXTT5=
EXTT6=
EXTT7=
EXTT8=
PLAYORDER=
